<?xml version="1.0" standalone="no"?>
<!DOCTYPE svg PUBLIC "-//W3C//DTD SVG 20010904//EN"
 "http://www.w3.org/TR/2001/REC-SVG-20010904/DTD/svg10.dtd">
<svg version="1.0" xmlns="http://www.w3.org/2000/svg"
 width="250.000000pt" height="250.000000pt" viewBox="0 0 250.000000 250.000000"
 preserveAspectRatio="xMidYMid meet">
<metadata>
Created by potrace 1.11, written by Peter Selinger 2001-2013
</metadata>
<g transform="translate(0.000000,250.000000) scale(0.100000,-0.100000)"
fill="#000000" stroke="none">
<path d="M885 2160 c-2 -3 9 -32 23 -65 25 -59 26 -65 26 -298 l1 -239 -431
-431 c-237 -238 -438 -447 -448 -464 -61 -119 7 -280 133 -316 37 -11 251 -13
1076 -12 1159 2 1080 -4 1150 78 55 64 71 159 40 235 -11 25 -153 175 -448
469 l-432 433 0 232 c0 214 2 238 22 301 13 38 23 72 23 76 0 7 -730 8 -735 1z
m577 -304 l-3 -193 -205 0 -205 0 2 159 1 160 51 23 52 24 -52 0 c-29 1 -53 6
-53 11 0 6 76 10 208 10 l207 0 -3 -194z"/>
<path d="M1228 2013 c-29 -8 -61 -70 -54 -106 17 -83 105 -114 167 -59 26 24
32 36 32 72 0 73 -64 114 -145 93z"/>
<path d="M1070 1799 c-26 -48 7 -91 57 -73 52 18 38 94 -17 94 -19 0 -33 -7
-40 -21z"/>
<path d="M1308 1730 c-22 -13 -16 -41 10 -51 30 -11 49 22 26 45 -8 9 -16 16
-17 16 -1 0 -9 -5 -19 -10z"/>
</g>
</svg>
